<?xml version="1.0" encoding="UTF-8" standalone="no"?>
<!-- Created with Inkscape (http://www.inkscape.org/) -->

<svg
   xmlns:dc="http://purl.org/dc/elements/1.1/"
   xmlns:cc="http://creativecommons.org/ns#"
   xmlns:rdf="http://www.w3.org/1999/02/22-rdf-syntax-ns#"
   xmlns:svg="http://www.w3.org/2000/svg"
   xmlns="http://www.w3.org/2000/svg"
   xmlns:sodipodi="http://sodipodi.sourceforge.net/DTD/sodipodi-0.dtd"
   xmlns:inkscape="http://www.inkscape.org/namespaces/inkscape"
   id="svg2"
   version="1.1"
   inkscape:version="0.91 r13725"
   xml:space="preserve"
   width="1488.1875"
   height="1052.3625"
   viewBox="0 0 1488.1875 1052.3625"
   sodipodi:docname="VT-logo_bw.svg"><metadata
     id="metadata8"><rdf:RDF><cc:Work
         rdf:about=""><dc:format>image/svg+xml</dc:format><dc:type
           rdf:resource="http://purl.org/dc/dcmitype/StillImage" /><dc:title></dc:title></cc:Work></rdf:RDF></metadata><defs
     id="defs6"><clipPath
       clipPathUnits="userSpaceOnUse"
       id="clipPath24"><path
         d="m 0,841.89 1190.55,0 L 1190.55,0 0,0 0,841.89 Z"
         id="path26"
         inkscape:connector-curvature="0" /></clipPath><clipPath
       clipPathUnits="userSpaceOnUse"
       id="clipPath48"><path
         d="m 0,841.89 1190.55,0 L 1190.55,0 0,0 0,841.89 Z"
         id="path50"
         inkscape:connector-curvature="0" /></clipPath></defs><sodipodi:namedview
     pagecolor="#ffffff"
     bordercolor="#666666"
     borderopacity="1"
     objecttolerance="10"
     gridtolerance="10"
     guidetolerance="10"
     inkscape:pageopacity="0"
     inkscape:pageshadow="2"
     inkscape:window-width="1598"
     inkscape:window-height="827"
     id="namedview4"
     showgrid="false"
     inkscape:zoom="0.22425732"
     inkscape:cx="15.020544"
     inkscape:cy="526.18127"
     inkscape:window-x="0"
     inkscape:window-y="18"
     inkscape:window-maximized="0"
     inkscape:current-layer="g10" /><g
     id="g10"
     inkscape:groupmode="layer"
     inkscape:label="VT-logo_bw"
     transform="matrix(1.25,0,0,-1.25,0,1052.3625)"><g
       id="g12"
       transform="translate(53.0625,3.8955)"><path
         d="M 0,0 1.886,0"
         style="fill:none;stroke:#f46e1c;stroke-width:1;stroke-linecap:butt;stroke-linejoin:miter;stroke-miterlimit:4;stroke-dasharray:none;stroke-opacity:1"
         id="path14"
         inkscape:connector-curvature="0" /></g><g
       id="g16"
       transform="translate(952.0713,102.3057)"><path
         d="M 0,0 -0.979,0"
         style="fill:none;stroke:#f46e1c;stroke-width:1;stroke-linecap:butt;stroke-linejoin:miter;stroke-miterlimit:4;stroke-dasharray:none;stroke-opacity:1"
         id="path18"
         inkscape:connector-curvature="0" /></g><g
       id="g20"><g
         id="g22"
         clip-path="url(#clipPath24)"><g
           id="g28"
           transform="translate(599.7832,760.8174)"><path
             d="m 0,0 c 139.879,-17.345 387.57,-45.317 439.485,-185.482 32.087,-112.477 -84.793,-211.113 -321.862,-259.568 -269.562,-55.092 -594.772,-34.015 -670.651,27.172 -106.315,93.237 238.041,175.291 618.739,93.237 404.92,-80.606 271.518,-216.688 202.459,-258.84 -60.474,-35.763 -155.588,-60.276 -198.616,-57.771 -34.203,3.136 71.737,54.309 101.634,73.187 8.212,5.189 -27.624,1.058 -12.575,10.336 8.12,5.006 20.627,-1.278 29.677,1.427 9.052,2.707 48.152,22.411 45.14,29.107 -15.409,28.998 -399.407,-156.852 -402.42,-95.578 0.756,43.959 234.503,136.411 263.465,112.956 56.216,-36.243 -401.748,-250.63 -521.622,-191.239"
             style="fill:none;stroke:#231f20;stroke-width:5;stroke-linecap:butt;stroke-linejoin:miter;stroke-miterlimit:4;stroke-dasharray:none;stroke-opacity:1"
             id="path30"
             inkscape:connector-curvature="0" /></g><g
           id="g32"
           transform="translate(312.0103,109.5156)"><path
             d="m 0,0 c -63.166,153.037 -100.265,308.025 -111.301,464.972 -2.104,21.403 -3.722,42.846 -4.852,64.322 l 43.747,0 C -67.064,364.079 -32.931,200.438 30.001,38.365 31.515,195.281 55.767,345.082 102.76,487.772 l -75.858,0 0,41.522 466.147,0 0,-41.522 -201.064,0 C 241.038,333.375 216.759,170.783 219.153,0 l -41.12,0 c -3.18,170.755 20.225,333.349 70.22,487.772 l -101.761,0 C 95.546,333.375 71.271,170.783 73.662,0 L 0,0 Z"
             style="fill:#231f20;fill-opacity:1;fill-rule:nonzero;stroke:none"
             id="path34"
             inkscape:connector-curvature="0" /></g><g
           id="g36"
           transform="translate(342.1895,109.5156)"><path
             d="m 0,0 c -63.167,153.037 -100.266,308.025 -111.302,464.972 -2.103,21.403 -3.721,42.846 -4.851,64.322 l 43.746,0 c 5.342,-165.215 39.476,-328.856 102.408,-490.929 1.514,156.916 25.767,306.717 72.758,449.407 l -75.857,0 0,41.522 466.148,0 0,-41.522 -201.066,0 C 241.037,333.375 216.758,170.783 219.151,0 l -41.117,0 c -3.182,170.755 20.225,333.349 70.217,487.772 l -101.758,0 C 95.547,333.375 71.27,170.783 73.661,0 L 0,0 Z"
             style="fill:#231f20;fill-opacity:1;fill-rule:nonzero;stroke:none"
             id="path38"
             inkscape:connector-curvature="0" /></g></g></g><text
       transform="matrix(1,0,0,-1,53.062,738.4844)"
       style="font-variant:normal;font-weight:normal;font-stretch:normal;font-size:67.90229797px;font-family:'Myriad Pro';-inkscape-font-specification:MyriadPro-Regular;writing-mode:lr-tb;fill:#231f20;fill-opacity:1;fill-rule:nonzero;stroke:none"
       id="text40"><tspan
         x="0 37.889484 71.297417 103.3473 136.41573 169.82365 206.35509 251.57802 285.05386 318.8013 335.02994 379.70966 423.57455 458.06891"
         y="0"
         sodipodi:role="line"
         id="tspan42">VELFERDSTINGET</tspan></text>
<g
       id="g44"><g
         id="g46"
         clip-path="url(#clipPath48)"><g
           id="g52"
           transform="translate(716.7168,316.1484)"><path
             d="M 0,0 C -269.564,-55.093 -594.773,-34.017 -670.652,27.17"
             style="fill:none;stroke:#231f20;stroke-width:5;stroke-linecap:butt;stroke-linejoin:miter;stroke-miterlimit:4;stroke-dasharray:none;stroke-opacity:1"
             id="path54"
             inkscape:connector-curvature="0" /></g><path
           d="m 835.239,578.033 -496.327,0 0,60.777 496.327,0 0,-60.777 z"
           style="fill:#231f20;fill-opacity:1;fill-rule:nonzero;stroke:none"
           id="path56"
           inkscape:connector-curvature="0" /></g></g><text
       transform="matrix(1,0,0,-1,60.3599,700.4321)"
       style="font-variant:normal;font-weight:normal;font-stretch:normal;font-size:33.9510994px;font-family:'Myriad Pro';-inkscape-font-specification:MyriadPro-Regular;writing-mode:lr-tb;fill:#231f20;fill-opacity:1;fill-rule:nonzero;stroke:none"
       id="text58"><tspan
         x="0 8.1143131 15.311946 38.704254 55.442146 70.142975 93.535278 100.73291 124.12522 146.05763 153.25526 174.03334 192.43483 209.13878 227.40446 244.14236 266.27847 288.24484"
         y="0"
         sodipodi:role="line"
         id="tspan60">I OSLO OG AKERSHUS</tspan></text>
</g></svg>